<?xml version="1.0" encoding="utf-8"?>
<!-- Generator: Adobe Illustrator 28.1.0, SVG Export Plug-In . SVG Version: 6.00 Build 0)  -->
<svg version="1.1" id="Layer_1" xmlns="http://www.w3.org/2000/svg" xmlns:xlink="http://www.w3.org/1999/xlink" x="0px" y="0px"
	 viewBox="0 0 1300 284" style="enable-background:new 0 0 1300 284;" xml:space="preserve">
<style type="text/css">
	.st0{fill:#21654E;}
	.st1{fill:#2CD192;}
</style>
<g>
	<g>
		<path class="st0" d="M404.36,43.19l-30.65,90.62l32.78,95.95h-30.92l-23.72-73.83h-0.53l-23.99,73.83h-27.45l32.78-95.95
			l-30.65-90.62h30.38l21.86,68.77h0.53l22.39-68.77H404.36z"/>
		<path class="st0" d="M508.05,89.3v24.26c0,29.85-14.39,46.11-43.71,46.11h-13.86v70.1h-29.32V43.19h43.18
			C493.65,43.19,508.05,59.45,508.05,89.3z M450.47,69.85v63.17h13.86c9.33,0,14.39-4.26,14.39-17.59V87.44
			c0-13.33-5.07-17.59-14.39-17.59H450.47z"/>
		<path class="st0" d="M550.96,121.82h40.25v26.65h-40.25v54.64h50.64v26.65h-79.96V43.19h79.96v26.65h-50.64V121.82z"/>
		<path class="st0" d="M681.03,229.77c-1.6-4.8-2.67-7.73-2.67-22.92v-29.32c0-17.33-5.86-23.72-19.19-23.72h-10.13v75.96h-29.32
			V43.19h44.25c30.38,0,43.44,14.13,43.44,42.91v14.66c0,19.19-6.13,31.45-19.19,37.58v0.53c14.66,6.13,19.46,19.99,19.46,39.45
			v28.79c0,9.06,0.27,15.73,3.2,22.66H681.03z M649.04,69.85v57.31h11.46c10.93,0,17.59-4.8,17.59-19.72V89.04
			c0-13.33-4.53-19.19-14.93-19.19H649.04z"/>
		<path class="st0" d="M726.87,43.19h29.32v186.58h-29.32V43.19z"/>
		<path class="st0" d="M775.11,87.97c0-29.85,15.73-46.91,44.51-46.91c28.78,0,44.51,17.06,44.51,46.91v97.02
			c0,29.85-15.73,46.91-44.51,46.91c-28.79,0-44.51-17.06-44.51-46.91V87.97z M804.43,186.86c0,13.33,5.86,18.39,15.19,18.39
			s15.19-5.07,15.19-18.39V86.11c0-13.33-5.86-18.39-15.19-18.39s-15.19,5.06-15.19,18.39V186.86z"/>
		<path class="st0" d="M962.75,155.41l-9.06,17.06v57.31h-29.32V43.19h29.32v80.76h0.53l37.85-80.76h29.32l-40.78,83.16
			l40.78,103.42h-30.12L962.75,155.41z"/>
		<path class="st0" d="M1034.72,43.19h29.32v186.58h-29.32V43.19z"/>
		<path class="st0" d="M1085.36,43.19h46.38c29.32,0,43.71,16.26,43.71,46.11v94.35c0,29.85-14.39,46.11-43.71,46.11h-46.38V43.19z
			 M1114.68,69.85v133.27h16.53c9.33,0,14.93-4.8,14.93-18.12V87.97c0-13.33-5.6-18.12-14.93-18.12H1114.68z"/>
		<path class="st0" d="M1233.55,41.06c28.52,0,43.18,17.06,43.18,46.91v5.86h-27.72v-7.73c0-13.33-5.33-18.39-14.66-18.39
			c-9.33,0-14.66,5.06-14.66,18.39c0,13.59,5.86,23.72,25.05,40.51c24.52,21.59,32.25,37.05,32.25,58.37
			c0,29.85-14.93,46.91-43.71,46.91c-28.78,0-43.71-17.06-43.71-46.91v-11.46h27.72v13.33c0,13.33,5.86,18.12,15.19,18.12
			c9.33,0,15.19-4.8,15.19-18.12c0-13.59-5.86-23.72-25.05-40.51c-24.52-21.59-32.25-37.05-32.25-58.37
			C1190.37,58.12,1205.03,41.06,1233.55,41.06z"/>
	</g>
	<g>
		<path class="st0" d="M198.81,257.81c-4.41,0-8.89-0.98-13.12-3.06c-37.04-18.19-69.87-43.02-97.58-73.8
			C60.26,150.02,38.96,114.59,24.8,75.65c-5.63-15.47,2.36-32.58,17.83-38.2c15.47-5.63,32.58,2.36,38.2,17.83
			c11.53,31.71,28.89,60.58,51.59,85.79c22.6,25.1,49.36,45.34,79.55,60.17c14.78,7.26,20.87,25.12,13.62,39.9
			C220.41,251.69,209.82,257.81,198.81,257.81z"/>
		<path class="st1" d="M52.84,257.81c-11.01,0-21.6-6.13-26.78-16.68c-7.26-14.78-1.16-32.64,13.62-39.9
			c45.39-22.29,83.21-57.01,109.37-100.4c8.5-14.1,26.82-18.64,40.92-10.14c14.1,8.5,18.64,26.82,10.14,40.92
			c-32.07,53.2-78.46,95.78-134.14,123.13C61.73,256.83,57.25,257.81,52.84,257.81z"/>
		<circle class="st0" cx="211.59" cy="48.54" r="30.35"/>
	</g>
</g>
</svg>
