<svg xmlns="http://www.w3.org/2000/svg" xmlns:xlink="http://www.w3.org/1999/xlink" width="1300" zoomAndPan="magnify" viewBox="0 0 974.88 225" height="300" preserveAspectRatio="xMidYMid meet" version="1.0"><path fill="#21654e" d="M 134.589844 175.492188 C 131.867188 175.492188 129.113281 174.886719 126.5 173.621094 C 103.671875 162.464844 83.449219 147.234375 66.363281 128.363281 C 49.203125 109.394531 36.074219 87.660156 27.355469 63.785156 C 23.886719 54.292969 28.8125 43.800781 38.347656 40.363281 C 47.867188 36.902344 58.417969 41.804688 61.878906 51.296875 C 68.988281 70.738281 79.691406 88.441406 93.675781 103.90625 C 107.597656 119.292969 124.097656 131.703125 142.703125 140.796875 C 151.808594 145.25 155.554688 156.203125 151.089844 165.265625 C 147.894531 171.734375 141.371094 175.492188 134.589844 175.492188 Z M 134.589844 175.492188 " fill-opacity="1" fill-rule="nonzero"/><path fill="#2cd192" d="M 44.628906 175.492188 C 37.851562 175.492188 31.324219 171.734375 28.128906 165.265625 C 23.652344 156.203125 27.410156 145.25 36.527344 140.796875 C 64.488281 127.128906 87.800781 105.832031 103.925781 79.226562 C 109.164062 70.574219 120.449219 67.796875 129.144531 73.011719 C 137.832031 78.222656 140.628906 89.453125 135.382812 98.097656 C 115.621094 130.722656 87.042969 156.832031 52.730469 173.609375 C 50.105469 174.886719 47.351562 175.492188 44.628906 175.492188 Z M 44.628906 175.492188 " fill-opacity="1" fill-rule="nonzero"/><path fill="#21654e" d="M 161.164062 47.164062 C 161.164062 48.386719 161.042969 49.589844 160.8125 50.789062 C 160.570312 51.992188 160.21875 53.148438 159.742188 54.285156 C 159.269531 55.40625 158.695312 56.488281 158.011719 57.5 C 157.328125 58.515625 156.558594 59.453125 155.6875 60.324219 C 154.816406 61.183594 153.878906 61.953125 152.855469 62.636719 C 151.828125 63.3125 150.761719 63.882812 149.625 64.359375 C 148.488281 64.820312 147.320312 65.171875 146.109375 65.414062 C 144.90625 65.648438 143.695312 65.769531 142.460938 65.769531 C 141.238281 65.769531 140.023438 65.648438 138.8125 65.414062 C 137.609375 65.171875 136.441406 64.820312 135.308594 64.359375 C 134.171875 63.882812 133.089844 63.3125 132.078125 62.636719 C 131.050781 61.953125 130.105469 61.183594 129.234375 60.324219 C 128.375 59.453125 127.589844 58.515625 126.910156 57.5 C 126.226562 56.488281 125.652344 55.40625 125.1875 54.285156 C 124.714844 53.148438 124.363281 51.992188 124.121094 50.789062 C 123.878906 49.589844 123.757812 48.386719 123.757812 47.164062 C 123.757812 45.941406 123.878906 44.726562 124.121094 43.527344 C 124.363281 42.324219 124.714844 41.167969 125.1875 40.03125 C 125.652344 38.90625 126.226562 37.839844 126.910156 36.824219 C 127.589844 35.800781 128.375 34.863281 129.234375 34.003906 C 130.105469 33.132812 131.050781 32.359375 132.078125 31.6875 C 133.089844 31.003906 134.171875 30.433594 135.308594 29.96875 C 136.441406 29.496094 137.609375 29.140625 138.8125 28.910156 C 140.023438 28.667969 141.238281 28.546875 142.460938 28.546875 C 143.695312 28.546875 144.90625 28.667969 146.109375 28.910156 C 147.320312 29.140625 148.488281 29.496094 149.625 29.96875 C 150.761719 30.433594 151.828125 31.003906 152.855469 31.6875 C 153.878906 32.359375 154.816406 33.132812 155.6875 34.003906 C 156.558594 34.863281 157.328125 35.800781 158.011719 36.824219 C 158.695312 37.839844 159.269531 38.90625 159.742188 40.03125 C 160.21875 41.167969 160.570312 42.324219 160.8125 43.527344 C 161.042969 44.726562 161.164062 45.941406 161.164062 47.164062 Z M 161.164062 47.164062 " fill-opacity="1" fill-rule="nonzero"/><path fill="#21654e" d="M 199.253906 85.066406 C 208.160156 84.980469 215.796875 88.085938 222.179688 94.371094 C 228.550781 100.664062 231.789062 108.300781 231.878906 117.296875 C 231.964844 126.203125 228.859375 133.851562 222.574219 140.222656 C 216.28125 146.601562 208.644531 149.832031 199.648438 149.921875 C 192.332031 149.921875 186.832031 147.617188 183.160156 143 L 183.160156 174.125 L 165.523438 174.125 L 165.523438 85.199219 L 183.160156 85.199219 L 183.160156 91.988281 C 186.597656 87.523438 191.957031 85.222656 199.253906 85.066406 Z M 210.847656 128.757812 C 214.042969 125.5625 215.566406 121.78125 215.390625 117.425781 C 215.390625 112.964844 213.824219 109.183594 210.714844 106.097656 C 207.542969 103.078125 203.761719 101.554688 199.386719 101.554688 C 194.941406 101.554688 191.164062 103.121094 188.054688 106.230469 C 184.933594 109.492188 183.382812 113.273438 183.382812 117.558594 C 183.558594 122.089844 185.15625 125.871094 188.1875 128.890625 C 191.292969 132.011719 195.074219 133.5625 199.515625 133.5625 C 204.035156 133.386719 207.816406 131.789062 210.847656 128.757812 Z M 210.847656 128.757812 " fill-opacity="1" fill-rule="nonzero"/><path fill="#21654e" d="M 300.164062 120.335938 C 300.25 122.101562 300.25 123.148438 300.164062 123.46875 L 252.8125 123.335938 C 253.453125 125.277344 254.664062 127.128906 256.425781 128.890625 C 259.710938 132.011719 263.503906 133.5625 267.800781 133.5625 C 272.320312 133.386719 276.101562 131.789062 279.132812 128.757812 L 279.617188 128.273438 L 295.976562 133.433594 C 292.382812 139.054688 288.613281 143.074219 284.644531 145.511719 C 280.203125 148.367188 274.613281 149.832031 267.890625 149.921875 C 259.007812 150.007812 251.367188 146.910156 244.964844 140.617188 C 238.582031 134.300781 235.351562 126.664062 235.265625 117.691406 C 235.199219 108.785156 238.316406 101.148438 244.613281 94.765625 C 250.894531 88.394531 258.542969 85.15625 267.539062 85.066406 C 276.445312 84.980469 284.082031 88.085938 290.464844 94.371094 C 296.835938 100.664062 300.074219 108.300781 300.164062 117.296875 Z M 267.671875 101.554688 C 263.195312 101.554688 259.425781 103.121094 256.339844 106.230469 C 254.71875 107.992188 253.574219 109.757812 252.902344 111.519531 L 282.527344 111.519531 C 281.84375 109.757812 280.675781 107.949219 279 106.097656 C 275.792969 103.078125 272.011719 101.554688 267.671875 101.554688 Z M 267.671875 101.554688 " fill-opacity="1" fill-rule="nonzero"/><path fill="#21654e" d="M 322.957031 94.765625 C 324.367188 90.742188 326.757812 87.921875 330.140625 86.300781 C 333.40625 84.714844 338.308594 83.921875 344.867188 83.921875 L 344.867188 101.910156 C 338.484375 101.910156 333.152344 104.101562 328.863281 108.476562 C 324.917969 112.335938 322.957031 116.578125 322.957031 121.21875 L 322.957031 149.921875 L 305.320312 149.921875 L 305.320312 85.066406 L 322.957031 85.066406 Z M 322.957031 94.765625 " fill-opacity="1" fill-rule="nonzero"/><path fill="#21654e" d="M 368.035156 62.140625 L 368.035156 77 L 350.535156 77 L 350.535156 62.140625 Z M 368.167969 85.199219 L 368.167969 149.921875 L 350.535156 149.921875 L 350.535156 85.199219 Z M 368.167969 85.199219 " fill-opacity="1" fill-rule="nonzero"/><path fill="#21654e" d="M 405.570312 85.066406 C 414.5625 84.980469 422.203125 88.085938 428.496094 94.371094 C 434.867188 100.75 438.0625 108.390625 438.0625 117.296875 C 438.152344 126.289062 435.042969 133.9375 428.761719 140.222656 C 422.433594 146.601562 414.828125 149.832031 405.921875 149.921875 C 396.949219 150.007812 389.28125 146.910156 382.910156 140.617188 C 376.492188 134.300781 373.296875 126.664062 373.296875 117.691406 C 373.230469 108.699219 376.351562 101.058594 382.644531 94.765625 C 388.925781 88.394531 396.574219 85.15625 405.570312 85.066406 Z M 417.03125 128.757812 C 420.140625 125.648438 421.707031 121.871094 421.707031 117.425781 C 421.707031 113.050781 420.097656 109.269531 416.902344 106.097656 C 413.691406 103.078125 409.914062 101.554688 405.570312 101.554688 C 401.183594 101.554688 397.457031 103.121094 394.371094 106.230469 C 391.253906 109.492188 389.699219 113.273438 389.699219 117.558594 C 389.699219 121.914062 391.285156 125.695312 394.460938 128.890625 C 397.566406 132.011719 401.359375 133.5625 405.835938 133.5625 C 410.355469 133.386719 414.089844 131.789062 417.03125 128.757812 Z M 417.03125 128.757812 " fill-opacity="1" fill-rule="nonzero"/><path fill="#21654e" d="M 495.589844 132.285156 L 535.050781 132.285156 L 535.050781 149.921875 L 475.972656 149.921875 L 475.972656 68.046875 L 495.589844 68.046875 Z M 495.589844 132.285156 " fill-opacity="1" fill-rule="nonzero"/><path fill="#21654e" d="M 602.800781 120.335938 C 602.890625 122.101562 602.890625 123.148438 602.800781 123.46875 L 555.449219 123.335938 C 556.089844 125.277344 557.300781 127.128906 559.066406 128.890625 C 562.351562 132.011719 566.140625 133.5625 570.441406 133.5625 C 574.960938 133.386719 578.738281 131.789062 581.769531 128.757812 L 582.257812 128.273438 L 598.613281 133.433594 C 595.019531 139.054688 591.25 143.074219 587.28125 145.511719 C 582.839844 148.367188 577.253906 149.832031 570.527344 149.921875 C 561.644531 150.007812 554.007812 146.910156 547.601562 140.617188 C 541.222656 134.300781 537.992188 126.664062 537.902344 117.691406 C 537.835938 108.785156 540.957031 101.148438 547.25 94.765625 C 553.53125 88.394531 561.183594 85.15625 570.175781 85.066406 C 579.082031 84.980469 586.71875 88.085938 593.101562 94.371094 C 599.472656 100.664062 602.714844 108.300781 602.800781 117.296875 Z M 570.308594 101.554688 C 565.832031 101.554688 562.0625 103.121094 558.976562 106.230469 C 557.355469 107.992188 556.210938 109.757812 555.539062 111.519531 L 585.164062 111.519531 C 584.484375 109.757812 583.3125 107.949219 581.640625 106.097656 C 578.429688 103.078125 574.652344 101.554688 570.308594 101.554688 Z M 570.308594 101.554688 " fill-opacity="1" fill-rule="nonzero"/><path fill="#21654e" d="M 654.558594 84.800781 L 672.195312 84.800781 L 672.195312 149.921875 L 654.558594 149.921875 L 654.558594 142.601562 C 650.945312 147.308594 645.476562 149.65625 638.160156 149.65625 C 629.277344 149.746094 621.636719 146.648438 615.234375 140.355469 C 608.851562 134.070312 605.621094 126.421875 605.535156 117.425781 C 605.46875 108.523438 608.585938 100.882812 614.878906 94.5 C 621.164062 88.132812 628.8125 84.890625 637.808594 84.800781 C 645.179688 84.800781 650.769531 87.207031 654.558594 91.988281 Z M 649.269531 128.492188 C 652.378906 125.40625 653.941406 121.636719 653.941406 117.164062 C 653.941406 112.644531 652.332031 108.863281 649.136719 105.832031 C 645.929688 102.636719 642.195312 101.113281 637.9375 101.292969 C 633.464844 101.292969 629.695312 102.855469 626.609375 105.964844 C 623.488281 109.085938 621.933594 112.863281 621.933594 117.296875 C 621.933594 121.683594 623.523438 125.453125 626.695312 128.625 C 629.804688 131.746094 633.597656 133.300781 638.070312 133.300781 C 642.589844 133.125 646.328125 131.523438 649.269531 128.492188 Z M 649.269531 128.492188 " fill-opacity="1" fill-rule="nonzero"/><path fill="#21654e" d="M 697.382812 94.765625 C 698.792969 90.742188 701.183594 87.921875 704.566406 86.300781 C 707.828125 84.714844 712.734375 83.921875 719.292969 83.921875 L 719.292969 101.910156 C 712.910156 101.910156 707.578125 104.101562 703.289062 108.476562 C 699.34375 112.335938 697.382812 116.578125 697.382812 121.21875 L 697.382812 149.921875 L 679.746094 149.921875 L 679.746094 85.066406 L 697.382812 85.066406 Z M 697.382812 94.765625 " fill-opacity="1" fill-rule="nonzero"/><path fill="#21654e" d="M 757.1875 85.289062 C 766.414062 84.558594 774.050781 86.953125 780.113281 92.472656 C 786.570312 98.449219 789.8125 106.800781 789.8125 117.558594 L 789.8125 149.921875 L 773.457031 149.921875 L 773.457031 117.914062 L 773.324219 117.914062 L 773.324219 117.691406 C 773.324219 113.226562 771.757812 109.4375 768.648438 106.316406 C 765.53125 103.230469 761.75 101.6875 757.320312 101.6875 C 752.789062 101.84375 749.007812 103.429688 745.988281 106.449219 C 742.78125 109.65625 741.273438 113.4375 741.449219 117.78125 L 741.449219 117.914062 L 741.316406 117.914062 L 741.316406 149.921875 L 723.679688 149.921875 L 723.679688 84.800781 L 741.316406 84.800781 L 741.316406 93.222656 C 745.25 88.527344 750.542969 85.882812 757.1875 85.289062 Z M 757.1875 85.289062 " fill-opacity="1" fill-rule="nonzero"/><path fill="#21654e" d="M 813.617188 62.140625 L 813.617188 77 L 796.117188 77 L 796.117188 62.140625 Z M 813.75 85.199219 L 813.75 149.921875 L 796.117188 149.921875 L 796.117188 85.199219 Z M 813.75 85.199219 " fill-opacity="1" fill-rule="nonzero"/><path fill="#21654e" d="M 853.53125 85.289062 C 862.757812 84.558594 870.398438 86.953125 876.457031 92.472656 C 882.917969 98.449219 886.15625 106.800781 886.15625 117.558594 L 886.15625 149.921875 L 869.800781 149.921875 L 869.800781 117.914062 L 869.667969 117.914062 L 869.667969 117.691406 C 869.667969 113.226562 868.105469 109.4375 864.996094 106.316406 C 861.875 103.230469 858.097656 101.6875 853.664062 101.6875 C 849.136719 101.84375 845.355469 103.429688 842.335938 106.449219 C 839.128906 109.65625 837.617188 113.4375 837.792969 117.78125 L 837.792969 117.914062 L 837.660156 117.914062 L 837.660156 149.921875 L 820.027344 149.921875 L 820.027344 84.800781 L 837.660156 84.800781 L 837.660156 93.222656 C 841.597656 88.527344 846.886719 85.882812 853.53125 85.289062 Z M 853.53125 85.289062 " fill-opacity="1" fill-rule="nonzero"/><path fill="#21654e" d="M 940.828125 84.933594 L 957.316406 84.933594 L 957.316406 149.789062 C 957.316406 158.695312 954.164062 166.289062 947.878906 172.582031 C 941.640625 178.898438 934.089844 182.082031 925.21875 182.148438 C 916.898438 182.238281 909.621094 179.515625 903.394531 173.992188 C 897.277344 168.613281 893.75 161.847656 892.8125 153.710938 L 909.433594 153.710938 C 910.019531 156.378906 911.464844 158.847656 913.757812 161.121094 C 916.84375 164.226562 920.613281 165.792969 925.085938 165.792969 C 929.519531 165.792969 933.253906 164.183594 936.285156 160.988281 C 939.394531 157.902344 940.957031 154.164062 940.957031 149.789062 L 940.828125 143.351562 C 936.527344 147.648438 931.324219 149.789062 925.21875 149.789062 C 916.226562 149.875 908.53125 146.78125 902.160156 140.484375 C 895.777344 134.171875 892.59375 126.53125 892.59375 117.558594 C 892.503906 108.566406 895.601562 100.925781 901.894531 94.632812 C 908.179688 88.261719 915.828125 85.023438 924.820312 84.933594 C 931.964844 84.933594 937.300781 87.160156 940.828125 91.59375 Z M 940.828125 115.53125 C 940.472656 111.828125 938.910156 108.644531 936.152344 105.964844 C 932.980469 102.945312 929.199219 101.421875 924.820312 101.421875 C 920.433594 101.421875 916.710938 102.988281 913.625 106.097656 C 910.503906 109.359375 908.949219 113.140625 908.949219 117.425781 C 908.949219 121.78125 910.546875 125.5625 913.757812 128.757812 C 916.84375 131.878906 920.613281 133.433594 925.085938 133.433594 C 929.605469 133.253906 933.34375 131.65625 936.285156 128.625 C 938.898438 126.046875 940.40625 122.9375 940.828125 119.324219 Z M 940.828125 115.53125 " fill-opacity="1" fill-rule="nonzero"/></svg>